<svg width="20" height="21" viewBox="0 0 20 21" fill="none" xmlns="http://www.w3.org/2000/svg">
<path d="M14.1641 2.99895C14.3829 2.78008 14.6428 2.60646 14.9287 2.48801C15.2147 2.36956 15.5212 2.30859 15.8307 2.30859C16.1403 2.30859 16.4468 2.36956 16.7327 2.48801C17.0187 2.60646 17.2785 2.78008 17.4974 2.99895C17.7163 3.21782 17.8899 3.47766 18.0083 3.76362C18.1268 4.04959 18.1878 4.35609 18.1878 4.66562C18.1878 4.97514 18.1268 5.28164 18.0083 5.56761C17.8899 5.85358 17.7163 6.11341 17.4974 6.33228L6.2474 17.5823L1.66406 18.8323L2.91406 14.2489L14.1641 2.99895Z" stroke="#667085" stroke-width="1.66667" stroke-linecap="round" stroke-linejoin="round"/>
</svg>
