<svg width="20" height="21" viewBox="0 0 20 21" fill="none" xmlns="http://www.w3.org/2000/svg">
<path d="M2.5 5.5013H4.16667M4.16667 5.5013H17.5M4.16667 5.5013V17.168C4.16667 17.61 4.34226 18.0339 4.65482 18.3465C4.96738 18.659 5.39131 18.8346 5.83333 18.8346H14.1667C14.6087 18.8346 15.0326 18.659 15.3452 18.3465C15.6577 18.0339 15.8333 17.61 15.8333 17.168V5.5013H4.16667ZM6.66667 5.5013V3.83464C6.66667 3.39261 6.84226 2.96868 7.15482 2.65612C7.46738 2.34356 7.89131 2.16797 8.33333 2.16797H11.6667C12.1087 2.16797 12.5326 2.34356 12.8452 2.65612C13.1577 2.96868 13.3333 3.39261 13.3333 3.83464V5.5013M8.33333 9.66797V14.668M11.6667 9.66797V14.668" stroke="#667085" stroke-width="1.66667" stroke-linecap="round" stroke-linejoin="round"/>
</svg>
